<?xml version="1.0" encoding="UTF-8" standalone="no"?>
<!-- Created with Inkscape (http://www.inkscape.org/) -->

<svg
   xmlns:dc="http://purl.org/dc/elements/1.1/"
   xmlns:cc="http://creativecommons.org/ns#"
   xmlns:rdf="http://www.w3.org/1999/02/22-rdf-syntax-ns#"
   xmlns:svg="http://www.w3.org/2000/svg"
   xmlns="http://www.w3.org/2000/svg"
   xmlns:sodipodi="http://sodipodi.sourceforge.net/DTD/sodipodi-0.dtd"
   xmlns:inkscape="http://www.inkscape.org/namespaces/inkscape"
   width="445.28pt"
   height="94pt"
   viewBox="0 0 556.23 117.51"
   id="svg2"
   version="1.1"
   inkscape:version="0.91 r13725"
   sodipodi:docname="autotruck.svg">
  <defs
     id="defs4" />
  <sodipodi:namedview
     id="base"
     pagecolor="#ffffff"
     bordercolor="#666666"
     borderopacity="1.0"
     inkscape:pageopacity="0.0"
     inkscape:pageshadow="2"
     inkscape:zoom="1.9799"
     inkscape:cx="320.02"
     inkscape:cy="-32.925"
     inkscape:document-units="px"
     inkscape:current-layer="layer1"
     showgrid="false"
     inkscape:window-width="1920"
     inkscape:window-height="1028"
     inkscape:window-x="-8"
     inkscape:window-y="-8"
     inkscape:window-maximized="1"
     showguides="true"
     inkscape:guide-bbox="true"
     units="pt">
    <sodipodi:guide
       position="593.57,1048.6"
       orientation="1,0"
       id="guide4362" />
  </sodipodi:namedview>
  <metadata
     id="metadata7">
    <rdf:RDF>
      <cc:Work
         rdf:about="">
        <dc:format>image/svg+xml</dc:format>
        <dc:type
           rdf:resource="http://purl.org/dc/dcmitype/StillImage" />
        <dc:title></dc:title>
      </cc:Work>
    </rdf:RDF>
  </metadata>
  <g
     inkscape:label="Layer 1"
     inkscape:groupmode="layer"
     id="layer1"
     transform="translate(0,-934.87)">
    <path
       style="opacity:1;fill:#ffffff;fill-opacity:1;fill-rule:nonzero;stroke:none;stroke-width:5;stroke-linecap:square;stroke-linejoin:miter;stroke-miterlimit:4;stroke-dasharray:none;stroke-opacity:1"
       d="m 167.18,971.79 l 17.6,-3.46 l 9.32,23.79 l -26.8,-4.92 z"
       id="rect4178-7"
       inkscape:connector-curvature="0"
       sodipodi:nodetypes="ccccc" />
    <rect
       style="opacity:1;fill:#ffffff;fill-opacity:1;fill-rule:nonzero;stroke:none;stroke-width:5;stroke-linecap:square;stroke-linejoin:miter;stroke-miterlimit:4;stroke-dasharray:none;stroke-opacity:1"
       id="rect4178"
       width="37.147"
       height="60.006"
       x="24.792"
       y="957.37"
       rx="0"
       ry="0" />
    <rect
       style="opacity:1;fill:#ffffff;fill-opacity:1;fill-rule:nonzero;stroke:none;stroke-width:5;stroke-linecap:square;stroke-linejoin:miter;stroke-miterlimit:4;stroke-dasharray:none;stroke-opacity:1"
       id="rect4178-6"
       width="45.719"
       height="60.006"
       x="81.225"
       y="958.09"
       rx="0"
       ry="0" />
    <g
       id="g4145"
       transform="translate(-3.5717,2.7145)"
       style="stroke:none;stroke-width:19.10163;stroke-miterlimit:4;stroke-dasharray:none;stroke-opacity:1">
      <path
         inkscape:connector-curvature="0"
         id="rect4158"
         d="m 17.029,947.16 l 0,80.64 l 15.347,0 a 12.698,13.35 0 0 0 12.69,13.3 a 12.698,13.35 0 0 0 12.699,-13.3 l 16.25,0 l 0,-80.64 l -56.986,0 z m 28.612,19.71 a 12.047,12.047 0 0 1 12.044,12.04 a 12.047,12.047 0 0 1 -1.55,5.91 l -10.494,21.78 l -10.91,-22.56 l 0,0 a 12.047,12.047 0 0 1 -1.16,-5.13 a 12.047,12.047 0 0 1 12.053,-12.04 z m -0.09,6.99 a 4.3142,4.3142 0 0 0 -4.313,4.31 a 4.3142,4.3142 0 0 0 4.313,4.32 a 4.3142,4.3142 0 0 0 4.321,-4.32 a 4.3142,4.3142 0 0 0 -4.321,-4.31 z"
         style="opacity:1;fill:#afd729;fill-opacity:1;fill-rule:nonzero;stroke:none;stroke-width:19.10163;stroke-linecap:square;stroke-linejoin:miter;stroke-miterlimit:4;stroke-dasharray:none;stroke-opacity:1" />
      <path
         inkscape:connector-curvature="0"
         id="rect4158-3"
         d="m 79.31,947.16 l 0,80.64 l 56.98,0 l 0,-80.64 l -56.98,0 z m 45.86,21.07 l 0,4.55 c -18.25,0.1 -32.984,14.75 -33.081,33.02 l -4.561,0 c 0.09,-20.73 16.932,-37.54 37.642,-37.57 z m 0,14.08 l 0,4.56 c -10.47,0.1 -18.91,8.44 -18.99,18.93 l -4.56,0 c 0.1,-12.95 10.62,-23.46 23.55,-23.49 z m -3.98,14.74 a 4.8838,4.8838 0 0 1 4.88,4.95 a 4.8838,4.8838 0 0 1 -4.88,4.9 a 4.8838,4.8838 0 0 1 -4.88,-4.9 a 4.8838,4.8838 0 0 1 4.88,-4.95 z"
         style="opacity:1;fill:#1ea988;fill-opacity:1;fill-rule:nonzero;stroke:none;stroke-width:19.10163;stroke-linecap:square;stroke-linejoin:miter;stroke-miterlimit:4;stroke-dasharray:none;stroke-opacity:1" />
      <path
         inkscape:connector-curvature="0"
         id="rect4158-3-9"
         d="m 141.99,948.94 l 0,78.86 l 13.56,0 c 0,7.4 5.71,13.3 12.69,13.3 c 6.99,0 12.67,-5.9 12.69,-13.3 l 17.58,0 l 0,-40.58 l -8.58,-23.25 l -23.17,-6.28 l -9.73,-7.08 l -15.04,-1.67 z m 45.52,18.55 l 7.14,19.92 l -22.1,-3.35 l 0,-13.92 l 14.96,-2.65 z"
         style="opacity:1;fill:#1179d7;fill-opacity:1;fill-rule:nonzero;stroke:none;stroke-width:19.10163;stroke-linecap:square;stroke-linejoin:miter;stroke-miterlimit:4;stroke-dasharray:none;stroke-opacity:1" />
    </g>
    <g
       transform="matrix(0.88856,0,0,0.84677,242.75,-48.638)"
       style="font-style:normal;font-weight:normal;font-size:84.54458px;line-height:125%;font-family:sans-serif;letter-spacing:0px;word-spacing:0px;fill:#ffffff;fill-opacity:1;stroke:#ffffff;stroke-width:1.39018;stroke-linecap:butt;stroke-linejoin:miter;stroke-miterlimit:4;stroke-dasharray:none;stroke-opacity:1"
       id="text4309" />
    <g
       transform="matrix(0.86391,0,0,0.87086,100.87,618.45)"
       style="font-style:normal;font-weight:normal;font-size:84.07835px;line-height:125%;font-family:sans-serif;letter-spacing:0px;word-spacing:0px;fill:#ffffff;fill-opacity:1;stroke:#ffffff;stroke-width:1.40364;stroke-linecap:butt;stroke-linejoin:miter;stroke-miterlimit:4;stroke-dasharray:none;stroke-opacity:1"
       id="text4309-9">
      <path
         id="path4357"
         style="font-style:normal;font-variant:normal;font-weight:600;font-stretch:normal;font-family:'Segoe UI';-inkscape-font-specification:'Segoe UI Semi-Bold';fill:#ffffff;fill-opacity:1;stroke:#ffffff;stroke-width:1.40364;stroke-miterlimit:4;stroke-dasharray:none;stroke-opacity:1"
         d="m 523.56,460.03 l -12.79,0 l -16.34,-20.2 l -0.16,0 l 0,20.2 l -9.57,0 l 0,-62.23 l 9.57,0 l 0,39.45 l 0.16,0 l 15.44,-19.26 l 11.45,0 l -16.28,18.68 z m -48.3,-1.9 q -4.56,2.92 -10.78,2.92 q -8.44,0 -13.62,-5.83 q -5.18,-5.88 -5.18,-15.22 q 0,-10.4 5.55,-16.69 q 5.59,-6.33 14.92,-6.33 q 5.19,0 9.14,2.01 l 0,8.88 q -3.95,-3.29 -8.44,-3.29 q -5.44,0 -8.91,4.11 q -3.48,4.07 -3.48,10.69 q 0,6.54 3.25,10.33 q 3.29,3.77 8.81,3.77 q 4.63,0 8.74,-3.65 l 0,8.3 z m -40.78,1.9 l -9.53,0 l 0,-6.65 l -0.16,0 q -4.15,7.64 -12.89,7.64 q -14.91,0 -14.91,-17.9 l 0,-25.13 l 9.53,0 l 0,24.14 q 0,11.33 8.74,11.33 q 4.23,0 6.94,-3.12 q 2.75,-3.12 2.75,-8.17 l 0,-24.18 l 9.53,0 l 0,42.04 z m -45.27,-32.96 q -1.72,-1.36 -4.97,-1.36 q -4.23,0 -7.06,3.82 q -2.83,3.82 -2.83,10.39 l 0,20.11 l -9.53,0 l 0,-42.04 l 9.53,0 l 0,8.67 l 0.16,0 q 1.4,-4.44 4.27,-6.9 q 2.92,-2.51 6.49,-2.51 q 2.59,0 3.94,0.78 l 0,9.04 z m -24.19,-16.44 l -17.5,0 l 0,49.45 l -10.11,0 l 0,-49.45 l -17.44,0 l 0,-8.11 l 45.05,0 l 0,8.11 z m -71.72,49.66 q -9.79,0 -15.65,-5.73 q -5.82,-5.8 -5.82,-15.31 q 0,-10.35 6.07,-16.19 q 6.11,-5.81 16.43,-5.81 q 9.91,0 15.44,5.66 q 5.53,5.67 5.53,15.7 q 0,9.83 -6,15.78 q -5.93,5.9 -16,5.9 z m 0.45,-35.62 q -5.6,0 -8.88,3.83 q -3.26,3.81 -3.26,10.51 q 0,6.47 3.31,10.2 q 3.3,3.69 8.83,3.69 q 5.66,0 8.67,-3.65 q 3.05,-3.66 3.05,-10.4 q 0,-6.78 -3.05,-10.48 q -3.01,-3.7 -8.67,-3.7 z m -27.35,34.47 q -2.99,1.36 -7.88,1.36 q -13.1,0 -13.1,-11.48 l 0,-23.23 l -7.52,0 l 0,-7.3 l 7.52,0 l 0,-9.52 l 10.19,-2.64 l 0,12.16 l 10.79,0 l 0,7.3 l -10.79,0 l 0,20.54 q 0,3.65 1.46,5.21 q 1.45,1.57 4.85,1.57 q 2.58,0 4.48,-1.36 l 0,7.39 z m -37.05,0.18 l -9.85,0 l 0,-6.54 l -0.16,0 q -4.29,7.51 -13.34,7.51 q -15.41,0 -15.41,-17.6 l 0,-24.71 l 9.84,0 l 0,23.73 q 0,11.15 9.05,11.15 q 4.37,0 7.17,-3.07 q 2.85,-3.06 2.85,-8.03 l 0,-23.78 l 9.85,0 l 0,41.34 z m -45.98,0.76 l -11.08,0 l -5.48,-14.65 l -23.95,0 l -5.26,14.65 l -11.04,0 l 22.8,-57.56 l 11.38,0 l 22.63,57.56 z m -19.24,-22.44 l -8.44,-22.96 q -0.38,-1.13 -0.81,-3.61 l -0.17,0 q -0.38,2.29 -0.85,3.61 l -8.36,22.96 l 18.63,0 z"
         inkscape:connector-curvature="0" />
    </g>
  </g>
</svg>
